<?xml version="1.0" encoding="iso-8859-1"?>
<!-- Generator: Adobe Illustrator 19.0.0, SVG Export Plug-In . SVG Version: 6.00 Build 0)  -->
<svg version="1.1" id="Capa_1" xmlns="http://www.w3.org/2000/svg" xmlns:xlink="http://www.w3.org/1999/xlink" x="0px" y="0px"
	 viewBox="0 0 512 512" style="enable-background:new 0 0 512 512;" xml:space="preserve">
<path style="fill:#E9EFF4;" d="M509.92,415.28c-37.968,22.224-24.88,43.888-69.04,62.416c-44.928,16.08-53.088-7.6-96,1.664
	C300.896,486.144,303.6,510.64,256,512c-48.048-1.376-45.36-25.872-88.88-32.64c-43.152-9.264-51.52,14.208-96.016-1.664
	c-43.712-18.32-30.864-39.984-69.04-62.416c64.208-43.648,101.152-112.08,103.84-185.248c1.136-29.856,2.288-59.696,3.424-89.552
	C112.928,61.472,178.56,0.064,256,0c77.488,0.048,143.056,61.264,146.656,140.48c1.152,29.856,2.288,59.696,3.44,89.552
	C408.768,302.88,445.776,371.872,509.92,415.28z"/>
<g>
	<path style="fill:#3E4347;" d="M337.344,243.12c7.728,5.568,13.168,12.88,15.424,22.272c1.264,5.184,1.408,10.768-4.896,15.28
		c-11.712,8.672-39.568,4.736-53.344,8.064c-12.336,3.392-22.16,20.56-38.4,20.688c-16.256-0.128-26.304-17.344-38.4-20.688
		c-13.76-3.312-41.648,0.624-53.344-8.048c-5.952-4.24-6.304-9.2-5.472-13.824c1.76-9.584,7.328-16.704,14.592-22.512
		c4.192-3.344,8.592-6.016,13.984-3.552c8.528,4.256,21.248,16.336,34.768,17.872c11.952,1.424,22.96-8.224,33.872-8.192
		c10.752-0.032,21.728,9.632,33.664,8.16c13.536-1.472,26.288-13.52,34.992-17.872C329.664,238.56,333.6,240.416,337.344,243.12z"/>
	<ellipse style="fill:#3E4347;" cx="309.088" cy="146.288" rx="36.704" ry="35.328"/>
	<ellipse style="fill:#3E4347;" cx="200.64" cy="146.288" rx="34.432" ry="25.328"/>
</g>
<g>
	<path style="fill:#5A5F63;" d="M223.264,141.568c-1.264,1.92-4.912,1.6-8.256-0.64c-3.328-2.24-5.072-5.6-3.808-7.52
		s4.912-1.6,8.256,0.64C222.784,136.288,224.528,139.648,223.264,141.568z"/>
	<path style="fill:#5A5F63;" d="M330.384,135.072c-1.264,1.92-4.912,1.6-8.256-0.64c-3.328-2.24-5.072-5.6-3.808-7.52
		c1.264-1.92,4.912-1.6,8.256,0.64C329.904,129.792,331.648,133.152,330.384,135.072z"/>
</g>
<path style="fill:#E24B4B;" d="M294.112,291.12c0,0.128,0.016,0.272,0.016,0.4c-5.44,61.056-21.616,74.64-38.112,74.4
	c-16.496,0.24-32.688-13.344-38.112-74.4c0-0.128,0-0.272,0.016-0.4c0.144-5.12,2.096-9.552,5.024-12.912
	c5.664-6.352,14.704-6.464,23.024-4.816c0.8,0.144,1.68,0.272,2.56,0.368c5.728,0.592,10.816-0.496,14.848-2.48
	c3.312-1.616,7.184-2.224,10.704-1.44C283.648,271.84,293.632,278.848,294.112,291.12z"/>
<g>
	<path style="fill:#E9EFF4;" d="M391.744,240.112c18.784-13.344,31.776-32.224,37.136-53.968c4.896-19.84,3.504-41.616,5.84-62.288
		s9.136-41.264,27.072-52.64c8.4-5.328,20.784-8.192,32.016-2.56C507.584,75.568,512,90.928,512,103.152
		c0.016,52.592-16.032,95.504-33.68,147.168c-27.28,79.888-49.36,92.56-62.608,106.608c-18.336,19.44-11.856,27.44-43.04,16.448"/>
	<path style="fill:#E9EFF4;" d="M120.256,240.112c-18.784-13.344-31.776-32.224-37.136-53.968
		c-4.896-19.84-3.504-41.616-5.84-62.288s-9.136-41.264-27.072-52.64c-8.4-5.328-20.784-8.192-32.016-2.56
		C4.416,75.568,0,90.928,0,103.152c-0.016,52.592,16.032,95.504,33.664,147.168c27.28,79.888,49.36,92.56,62.608,106.608
		c18.336,19.44,11.856,27.44,43.04,16.448"/>
</g>
<g>
</g>
<g>
</g>
<g>
</g>
<g>
</g>
<g>
</g>
<g>
</g>
<g>
</g>
<g>
</g>
<g>
</g>
<g>
</g>
<g>
</g>
<g>
</g>
<g>
</g>
<g>
</g>
<g>
</g>
</svg>
